<?xml version="1.0" standalone="no"?>
<!DOCTYPE svg PUBLIC "-//W3C//DTD SVG 20010904//EN"
 "http://www.w3.org/TR/2001/REC-SVG-20010904/DTD/svg10.dtd">
<svg version="1.0" xmlns="http://www.w3.org/2000/svg"
 width="512.000000pt" height="512.000000pt" viewBox="0 0 512.000000 512.000000"
 preserveAspectRatio="xMidYMid meet">

<g transform="translate(0.000000,512.000000) scale(0.100000,-0.100000)"
fill="#000000" stroke="none">
<path d="M412 5100 c-99 -26 -174 -71 -252 -149 -77 -79 -114 -142 -140 -247
-20 -76 -20 -118 -20 -2144 0 -2029 0 -2068 20 -2144 25 -101 69 -176 144
-252 76 -75 151 -119 252 -144 76 -20 115 -20 2144 -20 2026 0 2068 0 2144 20
105 26 168 63 247 140 80 79 123 153 149 256 20 76 20 115 20 2144 0 2029 0
2068 -20 2144 -26 103 -69 177 -149 256 -78 77 -142 113 -247 140 -76 20 -117
20 -2148 19 -2010 0 -2073 -1 -2144 -19z m1998 -2540 l0 -2260 -948 0 c-1068
0 -1006 -4 -1086 76 -83 82 -76 -113 -76 2184 0 2298 -7 2104 75 2185 77 78
16 73 1083 74 l952 1 0 -2260z m2243 2244 c28 -10 65 -34 91 -60 83 -82 76
113 76 -2184 0 -2297 7 -2102 -76 -2184 -80 -80 -18 -76 -1086 -76 l-948 0 0
2260 0 2260 948 0 c844 0 954 -2 995 -16z"/>
<path d="M1851 2208 c-81 -42 -81 -41 -81 -451 0 -386 0 -386 54 -436 20 -19
40 -26 84 -28 73 -5 115 19 143 82 19 43 20 64 17 399 -3 340 -4 356 -24 382
-53 71 -121 90 -193 52z"/>
<path d="M3145 2216 c-40 -18 -73 -56 -85 -97 -6 -19 -10 -180 -10 -369 0
-309 2 -338 20 -377 27 -61 70 -85 142 -80 44 2 64 9 84 28 54 50 54 50 54
436 0 409 0 409 -80 451 -50 25 -82 27 -125 8z"/>
</g>
</svg>
