<?xml version="1.0" standalone="no"?>
<!DOCTYPE svg PUBLIC "-//W3C//DTD SVG 20010904//EN"
 "http://www.w3.org/TR/2001/REC-SVG-20010904/DTD/svg10.dtd">
<svg version="1.0" xmlns="http://www.w3.org/2000/svg"
 width="512.000000pt" height="512.000000pt" viewBox="0 0 512.000000 512.000000"
 preserveAspectRatio="xMidYMid meet">

<g transform="translate(0.000000,512.000000) scale(0.100000,-0.100000)"
fill="#000000" stroke="none">
<path d="M2405 5010 c-583 -40 -1142 -296 -1560 -715 -382 -383 -630 -884
-700 -1418 -22 -173 -20 -496 5 -664 77 -523 301 -975 675 -1362 388 -400 870
-645 1432 -727 150 -22 489 -22 648 0 148 21 336 65 475 112 138 47 419 186
545 269 514 343 878 851 1031 1440 56 213 77 380 77 610 1 110 -5 245 -12 300
-69 550 -314 1049 -706 1440 -510 509 -1190 763 -1910 715z m410 -210 c82 -9
246 -38 253 -45 2 -1 -17 -31 -41 -66 -25 -35 -54 -84 -66 -108 -25 -49 -16
-48 -151 -6 -65 21 -107 28 -180 29 -88 1 -99 -1 -150 -29 -110 -60 -362 -348
-438 -501 l-31 -61 -59 -7 c-117 -13 -253 -105 -327 -221 -95 -150 -90 -302
14 -371 88 -57 197 -41 371 56 205 115 199 113 378 108 221 -7 370 -47 460
-123 38 -32 66 -81 58 -101 -8 -21 -118 -18 -431 12 -303 28 -532 34 -615 14
-168 -39 -279 -137 -451 -397 -78 -119 -92 -167 -91 -313 1 -184 42 -290 157
-405 126 -127 189 -141 479 -105 99 12 197 20 219 17 107 -14 174 -185 197
-501 l10 -138 -44 -98 c-66 -143 -72 -175 -51 -263 61 -249 255 -443 456 -455
89 -5 155 10 264 62 260 123 498 355 582 567 16 39 18 83 18 369 l0 325 51
105 c28 58 72 141 99 185 26 44 50 97 52 117 5 37 3 41 -114 160 -100 102
-127 137 -162 207 -23 45 -41 84 -39 86 2 2 23 -6 48 -18 47 -23 261 -229 434
-419 96 -107 98 -108 142 -108 52 0 88 16 126 57 39 41 56 88 78 220 11 64 24
121 29 126 17 17 67 -12 120 -68 27 -28 93 -119 146 -201 54 -82 119 -176 145
-209 l47 -60 -24 -120 c-53 -263 -178 -562 -331 -791 -349 -522 -877 -866
-1497 -975 -174 -30 -467 -37 -645 -14 -479 61 -905 261 -1271 598 l-80 74 12
169 c14 202 6 528 -15 631 -28 135 -68 201 -212 354 -52 55 -103 117 -114 139
-41 80 -106 378 -170 775 l-27 170 29 85 c36 105 134 310 195 410 324 525 856
905 1442 1030 219 47 507 63 716 40z"/>
</g>
</svg>
