<?xml version="1.0" standalone="no"?>
<!DOCTYPE svg PUBLIC "-//W3C//DTD SVG 20010904//EN"
 "http://www.w3.org/TR/2001/REC-SVG-20010904/DTD/svg10.dtd">
<svg version="1.0" xmlns="http://www.w3.org/2000/svg"
 width="512.000000pt" height="512.000000pt" viewBox="0 0 512.000000 512.000000"
 preserveAspectRatio="xMidYMid meet">

<g transform="translate(0.000000,512.000000) scale(0.100000,-0.100000)"
fill="#000000" stroke="none">
<path d="M4540 5035 c0 -107 -25 -177 -84 -239 -65 -66 -114 -87 -233 -99
l-103 -11 0 -72 0 -72 103 -4 c119 -5 163 -23 233 -94 59 -62 84 -132 84 -239
l0 -85 79 0 79 0 4 103 c5 116 22 161 87 226 63 63 121 85 234 89 l97 4 0 72
0 72 -98 10 c-112 11 -175 37 -233 95 -65 65 -82 110 -87 227 l-4 102 -79 0
-79 0 0 -85z m145 -350 l65 -65 -65 -65 -65 -65 -65 65 -65 65 63 64 c34 35
63 65 64 65 2 1 32 -28 68 -64z"/>
<path d="M880 4894 c-283 -39 -494 -185 -591 -412 -41 -96 -84 -348 -67 -394
4 -9 24 -12 75 -10 l70 4 7 92 c12 173 58 294 148 391 70 75 146 121 251 153
115 35 341 37 498 4 360 -75 720 -233 1127 -495 55 -35 97 -56 100 -50 53 79
74 114 71 117 -2 2 -49 33 -104 68 -412 266 -826 444 -1195 513 -85 16 -324
27 -390 19z"/>
<path d="M3420 4730 c-51 -9 -93 -34 -129 -76 -42 -47 -51 -73 -51 -142 1 -73
26 -128 80 -174 143 -123 360 -18 360 175 0 68 -9 94 -51 141 -54 62 -132 90
-209 76z m93 -168 c22 -19 22 -79 0 -104 -22 -25 -84 -24 -108 2 -21 23 -22
74 -3 97 28 34 75 37 111 5z"/>
<path d="M1244 4361 c-242 -39 -409 -189 -471 -421 -26 -96 -23 -303 6 -440
33 -157 93 -326 180 -505 96 -197 253 -464 274 -465 9 0 117 71 117 77 0 3
-29 51 -64 106 -233 372 -359 695 -382 977 -18 226 66 406 223 480 359 168
1085 -118 1765 -697 l87 -73 48 51 c26 28 49 54 50 57 1 4 -53 52 -120 108
-466 385 -908 627 -1314 720 -118 26 -312 39 -399 25z"/>
<path d="M1429 4046 c-55 -19 -106 -63 -128 -110 -23 -46 -28 -136 -11 -180 7
-20 5 -33 -10 -58 -50 -88 -68 -257 -41 -393 70 -347 300 -741 672 -1152 l112
-123 31 28 c17 15 42 39 55 55 l23 27 -97 102 c-418 439 -702 995 -656 1280
15 91 21 97 88 91 108 -10 190 33 233 123 85 174 -91 375 -271 310z m115 -157
c52 -41 23 -129 -43 -129 -71 0 -101 80 -47 127 33 28 56 29 90 2z"/>
<path d="M3015 3864 c-40 -47 -46 -58 -34 -68 8 -8 57 -51 109 -96 52 -45 134
-120 181 -165 l86 -83 -11 -51 c-18 -91 18 -179 98 -236 38 -28 47 -30 130
-30 l89 0 94 -110 c121 -142 231 -282 331 -422 l79 -111 62 40 61 41 -16 26
c-73 114 -307 417 -435 562 l-71 80 12 45 c46 165 -113 332 -272 285 l-39 -12
-85 78 c-152 140 -268 243 -295 263 l-27 20 -47 -56z m600 -459 c48 -47 17
-125 -51 -125 -76 0 -101 112 -31 140 37 15 57 11 82 -15z"/>
<path d="M385 3568 c-33 -11 -61 -21 -62 -22 -4 -3 74 -209 111 -296 66 -153
267 -523 306 -563 6 -7 99 43 128 68 1 1 -19 38 -46 81 -126 203 -266 490
-329 672 -15 45 -32 82 -38 81 -5 0 -37 -10 -70 -21z"/>
<path d="M4620 3530 c-51 -9 -93 -34 -129 -76 -42 -47 -51 -73 -51 -142 1 -73
26 -128 80 -174 143 -123 360 -18 360 175 0 68 -9 94 -51 141 -54 62 -132 90
-209 76z m93 -168 c22 -19 22 -79 0 -104 -22 -25 -84 -24 -108 2 -21 23 -22
74 -3 97 28 34 75 37 111 5z"/>
<path d="M1868 3410 c-142 -43 -198 -176 -153 -368 51 -214 249 -517 510 -778
359 -360 671 -548 930 -561 84 -5 93 -3 144 23 42 23 60 41 84 82 123 219 -74
634 -507 1067 -230 230 -423 374 -626 468 -144 66 -296 93 -382 67z m229 -170
c34 -12 99 -40 145 -63 84 -42 248 -147 248 -158 0 -4 -17 -9 -38 -13 -64 -10
-174 -71 -235 -131 l-57 -56 32 -47 c71 -106 243 -312 259 -312 4 0 31 23 60
51 l52 50 -60 62 c-65 66 -143 163 -143 177 0 5 25 21 56 36 79 38 179 39 256
1 165 -81 238 -269 164 -421 -15 -31 -31 -56 -36 -56 -5 0 -35 21 -67 47 l-57
46 -48 -53 c-26 -30 -48 -57 -48 -60 0 -6 137 -111 207 -159 l32 -21 54 56
c62 63 110 146 130 224 l14 53 72 -108 c85 -128 122 -198 156 -299 34 -101 34
-178 0 -211 -72 -73 -330 18 -583 204 -436 321 -812 824 -814 1090 -1 48 3 58
28 79 25 22 34 24 94 19 36 -3 93 -16 127 -27z"/>
<path d="M3037 3042 c-26 -26 -47 -51 -47 -56 0 -4 43 -54 96 -109 477 -502
757 -1117 626 -1374 -70 -135 -252 -164 -509 -82 -52 17 -96 29 -97 27 -6 -8
-46 -121 -46 -128 0 -22 199 -77 323 -90 255 -25 439 82 494 287 19 69 20 214
4 298 -70 347 -300 741 -673 1152 -61 68 -114 123 -117 123 -4 0 -28 -22 -54
-48z"/>
<path d="M894 2589 c-32 -22 -58 -45 -56 -51 10 -39 308 -426 459 -598 129
-146 404 -430 417 -430 6 0 33 22 60 49 l48 49 -137 138 c-238 241 -471 516
-649 766 l-83 117 -59 -40z"/>
<path d="M3827 2556 c-26 -18 -50 -36 -53 -39 -3 -3 23 -52 59 -109 238 -380
364 -705 382 -989 10 -148 -21 -272 -91 -366 l-24 -32 52 -51 53 -52 33 38
c167 194 171 562 10 974 -88 225 -328 661 -363 659 -5 0 -32 -15 -58 -33z"/>
<path d="M4545 1998 c-33 -17 -62 -32 -64 -34 -2 -2 19 -52 46 -111 143 -306
216 -590 217 -838 0 -229 -44 -357 -165 -478 -121 -121 -243 -162 -479 -161
-183 1 -322 26 -531 97 l-127 43 -27 -68 c-15 -38 -26 -71 -24 -72 2 -2 60
-22 128 -45 493 -163 885 -142 1132 62 99 82 191 241 226 392 27 117 24 352
-5 501 -30 150 -75 305 -129 444 -46 115 -129 300 -135 300 -2 -1 -30 -15 -63
-32z"/>
<path d="M1865 1869 l-50 -50 92 -87 92 -87 -1 -66 c-1 -55 3 -74 26 -113 15
-25 46 -59 68 -74 35 -22 52 -27 107 -27 36 0 77 3 91 8 21 6 44 -6 147 -80
166 -120 301 -203 468 -289 148 -77 314 -149 322 -140 3 2 15 34 28 69 l24 64
-102 43 c-223 93 -532 276 -727 429 -43 34 -45 38 -42 81 5 71 -6 104 -49 154
-31 35 -53 50 -94 62 -52 15 -109 12 -146 -7 -12 -6 -37 13 -100 77 -46 46
-88 84 -94 84 -6 0 -33 -23 -60 -51z m373 -255 c45 -31 20 -104 -37 -104 -36
0 -51 17 -51 56 0 32 28 64 55 64 6 0 21 -7 33 -16z"/>
<path d="M720 1880 c-51 -9 -93 -34 -129 -76 -42 -47 -51 -73 -51 -142 1 -73
26 -128 80 -174 143 -123 360 -18 360 175 0 68 -9 94 -51 141 -54 62 -132 90
-209 76z m93 -168 c22 -19 22 -79 0 -104 -22 -25 -84 -24 -108 2 -21 23 -22
74 -3 97 28 34 75 37 111 5z"/>
<path d="M2339 1065 l-43 -57 25 -19 c113 -88 414 -286 554 -364 77 -44 73
-45 120 46 l24 46 -67 38 c-133 75 -292 177 -418 266 -71 50 -134 93 -140 96
-7 2 -32 -21 -55 -52z"/>
<path d="M420 915 c0 -107 -25 -177 -84 -239 -65 -66 -114 -87 -233 -99 l-103
-11 0 -72 0 -72 103 -4 c119 -5 163 -23 233 -94 59 -62 84 -132 84 -239 l0
-85 79 0 79 0 4 103 c5 116 22 161 87 226 63 63 121 85 234 89 l97 4 0 72 0
72 -98 10 c-112 11 -175 37 -233 95 -65 65 -82 110 -87 227 l-4 102 -79 0 -79
0 0 -85z m145 -350 l65 -65 -65 -65 -65 -65 -65 65 -65 65 63 64 c34 35 63 65
64 65 2 1 32 -28 68 -64z"/>
<path d="M1598 829 c-46 -13 -120 -77 -142 -123 -20 -43 -21 -135 0 -184 34
-84 109 -132 204 -132 199 0 297 227 161 373 -55 60 -147 87 -223 66z m115
-167 c27 -24 23 -88 -8 -108 -56 -37 -115 -6 -115 61 0 64 71 91 123 47z"/>
</g>
</svg>
