<?xml version="1.0" standalone="no"?>
<!DOCTYPE svg PUBLIC "-//W3C//DTD SVG 20010904//EN"
 "http://www.w3.org/TR/2001/REC-SVG-20010904/DTD/svg10.dtd">
<svg version="1.0" xmlns="http://www.w3.org/2000/svg"
 width="512.000000pt" height="512.000000pt" viewBox="0 0 512.000000 512.000000"
 preserveAspectRatio="xMidYMid meet">

<g transform="translate(0.000000,512.000000) scale(0.100000,-0.100000)"
fill="#000000" stroke="none">
<path d="M2370 5114 c-19 -2 -78 -9 -130 -15 -791 -90 -1522 -586 -1924 -1305
-146 -262 -252 -587 -297 -914 -20 -143 -18 -527 4 -670 90 -586 331 -1065
738 -1467 63 -62 155 -145 204 -185 641 -512 1494 -684 2290 -461 929 260
1646 1043 1819 1987 156 845 -103 1682 -705 2285 -399 398 -879 639 -1449 726
-100 15 -472 28 -550 19z m545 -323 c66 -11 163 -31 216 -45 108 -28 288 -91
302 -105 12 -12 -137 -84 -223 -107 -73 -19 -209 -22 -441 -9 -228 12 -354
-21 -589 -157 -313 -180 -506 -242 -750 -241 -148 0 -236 18 -342 68 l-57 27
47 41 c332 295 804 500 1257 546 141 15 441 5 580 -18z m899 -352 c80 -55 207
-154 276 -217 53 -48 55 -50 37 -69 -34 -39 -176 -134 -264 -178 -227 -113
-401 -138 -702 -101 -135 17 -169 18 -271 8 -204 -20 -360 -78 -570 -209 -264
-167 -554 -271 -902 -324 -226 -35 -781 -37 -950 -3 l-27 5 35 82 c75 175 193
376 303 514 l41 53 38 -24 c59 -37 190 -91 277 -114 365 -96 732 -21 1195 247
169 97 232 116 385 116 66 -1 176 -4 245 -9 98 -6 146 -5 221 8 173 28 356
105 490 206 35 27 68 49 73 49 5 1 36 -18 70 -40z m634 -642 c48 -73 96 -152
107 -176 l19 -44 -39 -34 c-125 -107 -261 -173 -431 -208 -41 -8 -170 -20
-287 -25 -311 -14 -505 -52 -706 -138 -260 -112 -446 -299 -491 -491 -41 -175
50 -362 222 -459 162 -90 320 -116 668 -109 452 10 801 59 1163 163 65 19 122
34 126 34 5 0 7 -10 5 -22 -24 -154 -39 -230 -65 -323 l-30 -110 -307 0 c-238
0 -336 -4 -437 -18 -300 -42 -635 -123 -895 -217 -407 -148 -455 -160 -670
-167 -129 -4 -171 -2 -250 15 -171 35 -311 106 -470 237 -71 58 -239 144 -360
183 -179 58 -243 67 -490 67 -195 -1 -239 -4 -329 -23 -57 -13 -105 -22 -106
-20 -8 9 -57 227 -70 313 -35 226 -29 533 13 746 15 73 20 84 37 82 350 -33
391 -35 655 -30 282 5 435 21 640 67 295 66 564 175 805 325 135 85 189 110
289 140 123 35 236 41 376 20 148 -23 346 -23 470 -1 231 41 465 150 666 311
37 30 72 51 76 49 5 -3 48 -65 96 -137z m291 -639 c30 -110 65 -309 75 -439
l7 -76 -88 -31 c-359 -125 -734 -186 -1218 -199 -259 -6 -343 1 -455 40 -84
29 -150 89 -150 136 0 124 206 285 455 356 143 41 246 55 471 65 116 6 251 17
300 25 184 33 404 126 519 220 28 23 42 29 47 21 4 -7 20 -60 37 -118z m-3678
-1513 c178 -33 352 -107 456 -193 150 -125 326 -216 510 -264 113 -30 126 -32
328 -32 293 -1 324 6 840 189 247 87 516 153 781 191 115 16 560 31 589 20 15
-5 11 -16 -26 -84 -53 -97 -140 -226 -216 -322 -80 -101 -230 -258 -253 -265
-11 -3 -72 6 -137 20 -189 43 -366 65 -558 72 -275 9 -505 -20 -737 -93 -146
-45 -226 -46 -364 -3 -454 140 -862 152 -1157 34 -35 -14 -68 -25 -74 -25 -6
0 -55 46 -108 102 -104 109 -234 277 -307 398 -55 90 -124 227 -117 234 2 3
41 11 84 19 111 20 361 21 466 2z m809 -976 c63 -10 189 -40 280 -67 162 -46
168 -47 305 -47 130 0 147 2 240 32 213 68 374 93 593 93 130 0 362 -21 427
-38 29 -8 28 -9 -56 -55 -570 -311 -1202 -370 -1808 -171 -136 45 -369 152
-470 217 l-55 35 55 11 c30 6 72 12 94 15 74 7 279 -5 395 -25z"/>
<path d="M1755 2896 c-84 -21 -147 -57 -211 -121 -177 -176 -177 -453 1 -630
258 -259 695 -118 757 244 24 141 -22 281 -127 387 -112 113 -269 158 -420
120z m175 -306 c45 -23 80 -80 80 -130 0 -76 -74 -150 -151 -150 -46 0 -108
39 -130 82 -37 72 -14 151 57 194 48 29 92 30 144 4z"/>
<path d="M788 2589 c-43 -22 -78 -81 -78 -129 0 -76 74 -150 150 -150 76 0
150 74 150 150 0 50 -35 107 -80 130 -49 25 -94 25 -142 -1z"/>
<path d="M2388 1989 c-43 -22 -78 -81 -78 -129 0 -17 9 -49 20 -70 23 -45 80
-80 130 -80 50 0 107 35 130 80 11 21 20 53 20 70 0 50 -35 107 -80 130 -49
25 -94 25 -142 -1z"/>
</g>
</svg>
