<?xml version="1.0" standalone="no"?>
<!DOCTYPE svg PUBLIC "-//W3C//DTD SVG 20010904//EN"
 "http://www.w3.org/TR/2001/REC-SVG-20010904/DTD/svg10.dtd">
<svg version="1.0" xmlns="http://www.w3.org/2000/svg"
 width="512.000000pt" height="512.000000pt" viewBox="0 0 512.000000 512.000000"
 preserveAspectRatio="xMidYMid meet">

<g transform="translate(0.000000,512.000000) scale(0.100000,-0.100000)"
fill="#000000" stroke="none">
<path d="M267 5074 c-4 -4 -7 -77 -7 -163 0 -135 -3 -162 -21 -201 -37 -81
-99 -132 -187 -151 l-52 -11 0 -84 c0 -83 0 -84 27 -90 99 -22 158 -61 200
-131 27 -47 28 -52 31 -220 l4 -173 88 0 88 0 4 173 c3 168 4 173 31 220 42
70 101 109 200 131 27 6 27 7 27 90 l0 84 -52 12 c-81 17 -143 63 -181 135
-19 35 -23 61 -27 210 l-5 170 -80 3 c-45 1 -84 0 -88 -4z m126 -569 l38 -44
-40 -40 -41 -41 -41 41 -40 40 38 44 c21 24 40 43 43 43 3 0 22 -19 43 -43z"/>
<path d="M2465 4629 c-402 -31 -785 -177 -1109 -422 -106 -80 -317 -290 -394
-394 -241 -320 -382 -676 -423 -1064 -14 -138 -6 -416 16 -549 56 -338 197
-662 403 -931 584 -763 1605 -1035 2481 -662 666 283 1124 862 1256 1588 26
141 31 442 11 602 -127 998 -938 1765 -1938 1833 -157 11 -158 11 -303 -1z
m530 -203 c66 -14 147 -34 180 -45 l60 -19 -35 -6 c-19 -3 -66 -8 -105 -11
-526 -45 -1197 -224 -1715 -457 -85 -38 -170 -76 -189 -85 l-34 -15 47 53
c282 313 684 528 1126 600 173 28 498 21 665 -15z m691 -285 c49 -33 104 -72
122 -88 l34 -28 -220 -2 c-956 -8 -1888 -271 -2700 -764 -95 -58 -112 -65
-106 -46 10 32 105 240 116 254 16 20 496 256 643 317 600 246 1337 404 1941
415 l80 1 90 -59z m375 -327 c85 -80 227 -295 305 -459 45 -96 107 -265 100
-272 -2 -3 -28 0 -58 6 -29 6 -129 21 -223 33 -231 29 -761 32 -985 4 -681
-84 -1254 -275 -1810 -606 -190 -113 -461 -307 -584 -417 -49 -44 -50 -44 -59
-21 -4 12 -18 75 -29 138 -28 150 -30 456 -5 600 9 52 17 98 17 101 0 6 182
127 295 196 163 100 446 245 624 320 448 189 905 313 1381 373 249 32 376 39
698 36 l303 -3 30 -29z m-161 -844 c232 -15 597 -64 616 -83 8 -8 33 -235 34
-299 0 -32 -4 -58 -9 -58 -6 0 -38 7 -73 15 -88 20 -301 52 -443 66 -159 15
-537 15 -700 0 -845 -81 -1639 -424 -2257 -975 -53 -47 -99 -86 -101 -86 -14
0 -131 238 -151 305 -5 17 11 35 81 96 635 544 1433 894 2268 994 278 33 488
40 735 25z m110 -535 c207 -19 508 -70 527 -88 20 -20 -83 -460 -117 -500 -4
-4 -37 -1 -73 8 -306 71 -737 89 -1087 45 -130 -16 -371 -68 -499 -106 -479
-144 -954 -414 -1273 -722 l-57 -55 -38 29 c-86 65 -323 321 -323 348 0 19
250 233 400 341 577 417 1219 649 1965 708 115 10 439 5 575 -8z m-64 -696
c201 -19 394 -55 394 -73 0 -17 -103 -190 -152 -254 -33 -45 -44 -53 -64 -48
-92 23 -324 38 -519 33 -298 -8 -527 -48 -794 -137 -301 -101 -630 -282 -852
-470 -26 -22 -55 -40 -64 -40 -19 0 -259 121 -294 148 l-23 19 49 46 c137 129
364 292 551 396 353 199 768 331 1172 375 154 17 450 20 596 5z m-81 -520 c77
-5 142 -13 145 -16 3 -3 -29 -37 -70 -75 -477 -443 -1126 -617 -1758 -471 -40
9 -71 21 -69 27 6 17 187 143 298 206 441 253 948 368 1454 329z"/>
<path d="M4870 4633 c-73 -27 -74 -141 -2 -160 78 -21 135 45 106 122 -12 30
-69 51 -104 38z"/>
<path d="M4562 596 l-61 -61 24 -28 c14 -15 32 -53 41 -83 21 -73 12 -138 -31
-208 l-32 -54 58 -58 59 -59 28 18 c57 38 98 50 162 50 63 1 122 -18 172 -55
16 -11 25 -5 78 47 l59 60 -29 43 c-58 87 -59 206 -1 288 l29 42 -62 61 -62
62 -27 -21 c-38 -30 -102 -50 -163 -50 -40 0 -68 8 -117 34 l-65 34 -60 -62z
m308 -245 l0 -59 -60 -1 -60 0 0 60 0 59 60 0 60 0 0 -59z"/>
</g>
</svg>
