<?xml version="1.0" standalone="no"?>
<!DOCTYPE svg PUBLIC "-//W3C//DTD SVG 20010904//EN"
 "http://www.w3.org/TR/2001/REC-SVG-20010904/DTD/svg10.dtd">
<svg version="1.0" xmlns="http://www.w3.org/2000/svg"
 width="512.000000pt" height="512.000000pt" viewBox="0 0 512.000000 512.000000"
 preserveAspectRatio="xMidYMid meet">

<g transform="translate(0.000000,512.000000) scale(0.100000,-0.100000)"
fill="#000000" stroke="none">
<path d="M1228 5104 c-38 -20 -50 -47 -59 -134 -13 -137 -65 -245 -165 -342
-83 -82 -237 -147 -347 -148 -84 0 -140 -65 -117 -136 17 -52 50 -71 133 -79
204 -20 361 -127 444 -302 31 -64 39 -98 60 -242 2 -19 17 -46 33 -63 59 -59
161 -22 173 63 21 144 29 178 60 242 82 173 242 282 444 302 83 8 116 27 133
79 23 71 -33 136 -117 136 -110 1 -264 66 -347 148 -100 97 -152 205 -165 342
-9 89 -21 114 -61 135 -36 19 -67 19 -102 -1z"/>
<path d="M4276 4459 c-291 -43 -724 -274 -1231 -658 l-140 -106 -95 17 c-121
21 -345 22 -472 3 -662 -99 -1175 -625 -1258 -1288 -15 -118 -8 -373 13 -466
l14 -64 -107 -141 c-468 -614 -704 -1115 -660 -1399 27 -179 137 -297 311
-333 285 -60 768 162 1417 650 823 620 1767 1600 2279 2366 444 666 548 1086
323 1310 -59 60 -130 95 -220 109 -73 12 -91 12 -174 0z m79 -461 c-44 -262
-378 -797 -847 -1356 -378 -450 -864 -938 -1318 -1323 -457 -387 -887 -680
-1182 -804 -108 -46 -233 -83 -244 -72 -21 21 65 253 159 427 73 135 323 517
371 568 2 1 32 -37 69 -85 36 -49 101 -123 144 -166 l79 -77 154 120 c667 518
1313 1165 1833 1834 l116 149 -42 46 c-59 65 -151 146 -225 198 l-62 45 65 49
c103 79 370 251 490 318 162 89 360 168 428 170 17 1 18 -4 12 -41z"/>
<path d="M4605 2753 c-165 -87 -166 -300 -1 -385 59 -30 151 -22 208 18 138
96 118 305 -34 369 -48 19 -134 19 -173 -2z"/>
<path d="M331 2534 c-132 -66 -157 -229 -51 -334 105 -106 268 -81 334 51 43
88 30 176 -39 244 -68 69 -156 82 -244 39z"/>
<path d="M3965 2191 c-356 -422 -872 -940 -1303 -1310 l-152 -131 94 0 c52 0
145 9 208 19 437 75 822 346 1048 738 118 205 196 495 188 698 l-3 81 -80 -95z"/>
<path d="M3965 833 c-165 -87 -166 -300 -1 -385 59 -30 151 -22 208 18 138 96
118 305 -34 369 -48 19 -134 19 -173 -2z"/>
</g>
</svg>
